<?xml version="1.0" encoding="utf-8"?>
<!-- Generator: Adobe Illustrator 22.1.0, SVG Export Plug-In . SVG Version: 6.00 Build 0)  -->
<svg version="1.1" id="Laag_1" xmlns="http://www.w3.org/2000/svg" xmlns:xlink="http://www.w3.org/1999/xlink" x="0px" y="0px"
	 viewBox="0 0 185 109" style="enable-background:new 0 0 185 109;" xml:space="preserve">
<style type="text/css">
	.st0{fill:#FFFFFF;}
	.st1{fill:#B3B3B3;}
	.st2{fill:#9E9E9E;}
	.st3{fill:#757575;}
	.st4{fill:#737373;}
	.st5{fill:#535353;}
	.st6{fill:#8E8E8E;}
	.st7{fill:#404040;}
</style>
<g id="Laag_1_1_">
	<rect class="st0" width="185" height="109"/>
	
		<rect x="80.9" y="47.8" transform="matrix(0.2907 -0.9568 0.9568 0.2907 21.1923 127.1432)" class="st1" width="30.9" height="2.9"/>
	
		<rect x="63.5" y="43.6" transform="matrix(0.3911 -0.9203 0.9203 0.3911 9.1955 104.3369)" class="st2" width="39.9" height="3.3"/>
	<rect x="60.2" y="50.9" transform="matrix(0.549 -0.8358 0.8358 0.549 -12.3301 83.8924)" class="st3" width="22.8" height="4.9"/>
	<g>
		<rect x="113.7" y="30.6" class="st4" width="7.5" height="6.4"/>
		<rect x="113.7" y="58.5" class="st4" width="7.5" height="5.9"/>
		<rect x="113.7" y="38.8" class="st4" width="7.5" height="17.9"/>
	</g>
	<g>
		<rect x="104.4" y="36" transform="matrix(0.1002 -0.995 0.995 0.1002 56.2497 143.0555)" class="st5" width="5.6" height="8.9"/>
		
			<rect x="99.9" y="46.8" transform="matrix(0.1002 -0.995 0.995 0.1002 44.4992 151.7499)" class="st5" width="12.5" height="8.9"/>
		
			<rect x="102.7" y="57.2" transform="matrix(0.1004 -0.9949 0.9949 0.1004 33.2117 160.0707)" class="st5" width="4.8" height="8.9"/>
	</g>
	<g>
		<rect x="93.9" y="30.4" transform="matrix(0.3689 -0.9295 0.9295 0.3689 29.3155 109.9275)" class="st6" width="3.5" height="6"/>
		<rect x="78.1" y="44.6" transform="matrix(0.3693 -0.9293 0.9293 0.3693 12.48 113.5807)" class="st6" width="23.6" height="6"/>
		<rect x="82.7" y="58.7" transform="matrix(0.3693 -0.9293 0.9293 0.3693 -4.1474 117.2698)" class="st6" width="3.2" height="6"/>
	</g>
	<g>
		<path class="st7" d="M18,81.8l-3.3-4.2L13,79.5v2.3h-1V73h1v5.1l4.8-5.1H19l-3.5,3.8l3.8,5H18z"/>
		<path class="st7" d="M25.3,81.8h-1V73h1V81.8z"/>
		<path class="st7" d="M38.9,81.8h-1l-5.3-7.1v7.1h-1V73h1.1l5.3,7.1V73h1L38.9,81.8L38.9,81.8z"/>
		<path class="st7" d="M45,73h3.6c1.3,0,2.4,0.4,3.2,1.3c0.9,0.8,1.3,1.9,1.3,3.2c0,1.3-0.4,2.3-1.3,3.2c-0.9,0.8-2,1.3-3.3,1.3H45
			V73z M46,73.9v6.9h2.6c1,0,1.8-0.3,2.5-1s1-1.5,1-2.5s-0.3-1.8-1-2.5s-1.5-1-2.5-1L46,73.9L46,73.9z"/>
		<path class="st7" d="M64.5,73.9h-5v2.9H64v1h-4.5v3h5.2v1h-6.2V73h6V73.9z"/>
		<path class="st7" d="M76,81.8L74.2,79c-0.3,0-0.5,0-0.6,0h-2.4v2.8h-1V73h3.4c1.1,0,2,0.3,2.6,0.8s0.9,1.3,0.9,2.2
			c0,0.7-0.2,1.3-0.5,1.8s-0.8,0.8-1.5,1.1l2.1,3L76,81.8L76,81.8z M71.2,78.1h2.4c0.8,0,1.4-0.2,1.9-0.5c0.4-0.4,0.7-0.9,0.7-1.6
			s-0.2-1.2-0.7-1.5c-0.4-0.3-1.1-0.5-1.9-0.5h-2.4V78.1z"/>
		<path class="st7" d="M89.7,75.2c0,0.9-0.6,1.7-1.5,1.9c1.2,0.2,1.8,1.1,1.8,2.2c0,1.5-1.3,2.5-3.3,2.5h-4.2V73h4.1
			C88.5,73,89.7,73.8,89.7,75.2z M87.6,75.5c0-0.6-0.5-1-1.2-0.9h-2v1.9h2C87.2,76.5,87.6,76.2,87.6,75.5z M87.9,79.1
			c0-0.6-0.6-1-1.5-1h-2v2.1h2C87.4,80.2,87.9,79.8,87.9,79.1z"/>
		<path class="st7" d="M104.1,77.4c0,2.6-2.1,4.5-4.8,4.5c-2.7,0-4.8-1.9-4.8-4.5s2.1-4.5,4.8-4.5C102.1,72.9,104.1,74.8,104.1,77.4
			z M96.7,77.4c0,1.6,1.3,2.8,2.7,2.8c1.5,0,2.7-1.2,2.7-2.8s-1.2-2.7-2.7-2.7C97.9,74.6,96.7,75.8,96.7,77.4z"/>
		<path class="st7" d="M116,73v1.7h-4.7v1.9h4.3v1.7h-4.3v2h4.9V82h-6.9v-9H116z"/>
		<path class="st7" d="M127.3,81.8l-2.5-3.6l-1.3,1.4v2.2h-2V73h2v4l3.7-4h2.3l-3.3,3.7l3.6,5.2L127.3,81.8L127.3,81.8z"/>
		<path class="st7" d="M141.4,73v1.7h-4.7v1.9h4.3v1.7h-4.3v2h4.9V82h-6.9v-9H141.4z"/>
		<path class="st7" d="M152.3,81.8l-1.4-2.5h-0.2h-1.8v2.5h-2V73h3.8c2.3,0,3.6,1.1,3.6,3.1c0,1.4-0.6,2.4-1.7,2.9l1.9,2.9
			L152.3,81.8L152.3,81.8z M148.9,77.6h1.8c1.1,0,1.7-0.5,1.7-1.5s-0.6-1.5-1.7-1.5h-1.8V77.6z"/>
		<path class="st7" d="M161.9,73v8.9h-2V73H161.9z"/>
		<path class="st7" d="M169.5,81.9c-1.2,0-2.2-0.5-2.9-1.4l0.9-1.4c0.6,0.7,1.3,1,1.9,1c0.7,0,1.1-0.4,1.1-1.2v-4.3h-3.1V73h5.1v6
			C172.5,80.9,171.3,81.9,169.5,81.9z"/>
	</g>
</g>
<g id="Laag_2_1_">
</g>
</svg>
