<?xml version="1.0" encoding="utf-8"?>
<!-- Generator: Adobe Illustrator 22.1.0, SVG Export Plug-In . SVG Version: 6.00 Build 0)  -->
<svg version="1.1" id="Laag_1" xmlns="http://www.w3.org/2000/svg" xmlns:xlink="http://www.w3.org/1999/xlink" x="0px" y="0px"
	 viewBox="0 0 185 109" style="enable-background:new 0 0 185 109;" xml:space="preserve">
<style type="text/css">
	.st0{fill:#FFFFFF;}
	.st1{fill:none;stroke:#510C76;stroke-width:1.5793;}
</style>
<g id="Laag_1_1_">
	<rect class="st0" width="185" height="109"/>
</g>
<g id="Laag_2_1_">
</g>
<path d="M21.9,60v-0.5h2V34.7h-2v-0.5h8.3v0.5h-2.1v24.8h12.2c2.8-1.2,3.3-5.7,3.3-5.7h0.2V60H21.9z"/>
<path d="M66.4,59.5V60h-5.9v-4.4c-1.1,2.5-3.7,4.3-6.4,4.3c-3.3,0-6.4-2.5-6.4-5.7V41.8h-2.2v-0.5h8.3v0.5h-1.9v14.9
	c0,0,0.4,2.7,2.3,2.9c2.8-0.1,5.5-2.2,6.3-5V41.8h-2.1v-0.5h8v0.5h-1.7v17.7H66.4z"/>
<path d="M85.6,56h0.5c-1.7,2.4-4.4,4-7.5,4c-5.1,0-9.2-4.2-9.2-9.4c0-5.1,4.1-9.3,9.2-9.3c3.2,0,5.9,1.6,7.6,4.1h-0.5
	c-1.6-2.3-4.2-3.8-7.2-3.8l-0.9,0.1c-1.7,1-3,4.6-3,8.9s1.3,7.9,3,9h0.9C81.5,59.6,84,58.2,85.6,56z"/>
<path d="M103.9,60.2c-3.9,0-4-1.6-4-4.8c-0.7,4.7-7,6.1-10.2,3.5c-1.8-1.4-1.5-5.6-0.5-6.5c2.7-2.8,10.7-2.6,10.7-2.6v-0.2
	c0-1.4,0-2.6,0-3.6c-0.1-2.9-0.6-4.5-4.5-4.5c-1.5,0-3.9,0.7-3.9,1.6c0,0.4,0.4,0.8,1.2,1.4c0.5,0.4,0.9,1,0.9,1.6c0,1-1,2-2,2
	c-1.3,0-2.2-1.3-2.2-2.8c0-4.1,4.9-4.2,6.6-4.2c6.7,0,8.6,3.2,8.6,6.6c0,1.9-0.1,4-0.1,7.1c0,1-0.3,4.5,0.9,4.5
	c2.2,0,1.8-2.6,1.9-2.6h0.4C107.5,59.2,106.2,60.2,103.9,60.2z M99.8,50.2c0,0-6.2,0.4-6.2,2.9c0,0.2-0.9,5.6,1.1,6.4
	c0.1,0.1,3.3,0.9,4.8-4.2C99.6,55.2,99.8,52.6,99.8,50.2z"/>
<path d="M122.6,41.5c0,0,2.1,0.4,2.1,3.6c0,1-1.1,2.1-2.1,2.1s-2.1-1.1-2.1-2.1c0-1.8,1.9-1.3,1.9-2.7c0,0-0.1-0.6-0.7-0.8
	c0,0-1.6-0.5-3.3,0.9c-0.1,0.1-1.5,1.2-2.2,3.5l-0.3,1.1v12.4h1.9V60h-8.4v-0.5h2.2V41.8h-2.2v-0.5h6.4v4.5
	C117,42.9,119.1,40.6,122.6,41.5z"/>
<path d="M142.6,60v-1.8c-1.6,1.3-3.6,2-5.7,2c-2.5,0-4.8-1-6.5-2.8s-2.7-4.3-2.7-6.8s1-4.8,2.7-6.6c1.7-1.9,4.1-2.9,6.5-2.9
	c2.1,0,4.1,0.7,5.7,2v-8.5h-1.8v-0.5h8.4v0.5h-1.8v24.8h1.8V60H142.6z M136.9,41.5c-0.3,0-0.6,0-0.9,0c-1.7,1-3,4.7-3,9
	s1.3,8.1,3,9.1c0.3,0,0.6,0,0.9,0c2.1,0,4.1-0.8,5.7-2.1v-14C141,42.3,139,41.5,136.9,41.5z"/>
<path d="M152.6,60v-0.5h2.2V41.8h-2.2v-0.5h8.4v0.5h-2.1v17.7h2.1V60H152.6z M154.7,36.4c0-1.1,1.1-2.1,2.2-2.1
	c1.1,0,2.1,1.1,2.1,2.1c0,1.1-1.1,2.2-2.1,2.2C155.7,38.6,154.7,37.5,154.7,36.4z"/>
<path d="M87.5,71.7c0,0,0,1.8,0,3.8c0.5-0.1,0.9-0.1,1.3-0.1c0,0,1,0.6,0.6,0.9c-0.5-0.1-1.1,0-1.8,0.1c0,1.8-0.1,3.6-0.3,4.5
	c-1,4.9-4,5.5-5.4,5.5c-2.1,0-3.6-1.4-3.5-3.4c0.2-3.1,4.6-6.1,7.8-7.2c0-3.1-0.1-6.3,0.8-8.7c0.1-0.3,1.5,0,1.2,0.5
	C87.5,69.4,87.5,71.7,87.5,71.7z M79.5,83.2c0,0.6-0.1,2.2,2.3,2.5c2.5,0.2,3.9-3.5,4.2-5.6c0.1-1,0.2-2.1,0.2-3.2
	C83.2,78.1,79.6,80.9,79.5,83.2z M89,64.6c0,0.8-0.9,1.2-1.2,1.1c-0.7-0.1-0.8-0.6-0.8-1c0-0.3,0.4-1.4,1.2-1.3
	C88.8,63.5,89,64.2,89,64.6z M98.2,73.3c-2.3,0-2.7-2.7-2.7-2.7s-0.9,2.7-2.7,2.6c-1.5-0.1-2.1-2.2-1.8-3.6c0.2-1.5,0.7-2.8,0.8-3.2
	c0-0.2,0.2-0.8,1-0.5c0.6,0.2,0.3,0.7,0.1,1.5c-0.4,1.2-1.1,4.5,0.3,4.6c0.9,0.1,2-2.3,2.2-3.2c0.1-0.6,0.2-1.1,0.4-1.7
	c0.1-0.6,0.5-0.8,0.9-0.7c0.8,0.2,0.4,0.6,0.3,1.1c-0.1,0.4-0.1,1.2-0.1,2.5c0,1.1,0.3,2.1,1.2,2.2c2.3,0.2,3.6-2.7,4.4-4.2
	c0.3-0.6,0.9,0.2,0.1,1.6C101.7,71,100.1,73.3,98.2,73.3z M111.1,70.9c-0.6,1.4-1.3,2.7-2.7,2.7c-1.4,0-2-1.6-2-1.6
	s-0.9,1.8-2.3,1.8c-2.4,0-2.3-3.9-2.1-5.4c0.2-2.1,0.9-2.1,1.4-1.8c0.5,0.2,0,0.9,0,0.9s-0.2,1.3-0.2,2.1c0,0.8-0.2,3,1.1,3.3
	c1,0.2,2-2.1,1.9-4c-0.1-1.4,0.5-1.7,0.9-1.7s0.7,0.3,0.7,1.2c0,0.2-0.2,1.5-0.3,1.8c0,0.1-0.2,2.7,0.8,2.7c0.7,0,1.5-1.3,2.1-2.7
	c-0.3-0.7-0.4-1.5-0.4-2.2c0-1,0.7-2.8,1.3-2.8c1.5,0.1,0.7,4.4,0.2,4.9c0.6,0.4,1.6,0.5,2.5,0.3c0-0.3,0-0.6,0-0.9
	c0.1-1.9,1.8-5.5,3.7-4.5c2.4,1.2,0,5.7-2.4,6.1c0.2,1,0.8,1.6,2,1.6c2.6,0,4-3.1,4.9-4.6c0.3-0.6,0.8,0.2,0,1.7
	c-0.2,0.5-2.1,4.3-4.8,4.2c-2.2,0-3-1.2-3.4-2.6C113.2,71.5,111.9,71.4,111.1,70.9z M117.1,65.8c-0.6-0.1-1.7,2.1-1.8,4
	c0.8-0.3,1.5-1,1.8-1.7C117.5,67.6,118,66,117.1,65.8z M129.2,68.1c0.4-0.6,0.8,0.2,0.1,1.6c-0.2,0.5-2.1,4.4-5.6,4.2
	c-4.2-0.2-4.3-4.9-4.3-8.8c0-3.4,2.1-10.5,4.8-10.3c1.7,0.1,2.4,2.2,1.8,5.7c-0.7,4.7-3.4,9.4-4.6,10.7c0.6,1,1.5,1.6,2.6,1.6
	C126.7,72.9,128.4,69.6,129.2,68.1z M124.2,56.2c-1.3-0.1-3.3,4.3-3.7,9c-0.1,1.5,0.1,3.9,0.6,5.2c1.8-2.7,2.4-4,3.7-9.1
	C125,60.4,125.6,56.3,124.2,56.2z M131.7,73.9c-2.8,0-3-3.3-3-3.9c0.1-0.8,0.4-2.4,0.4-2.4c0.2-0.6,1.3-0.6,1.3,0.1
	c0,0.2-1.3,5.2,1.4,5c1.9-0.1,3.7-3.3,4.5-4.8c0.3-0.6,0.8,0.2,0.1,1.6C136.2,70.1,134.3,73.9,131.7,73.9z M130.7,65
	c-0.1,0.5-0.5,0.9-1.1,0.8c-0.7-0.1-0.8-0.7-0.8-1s0.4-1.2,1.1-1.1C130.7,63.8,130.7,64.5,130.7,65z M141.7,68
	c0.3-0.6,0.8,0.2,0,1.7c-0.2,0.5-2.1,4.3-4.8,4.2c-3.2-0.1-3.6-2.6-3.5-4.5s1.8-5.7,3.7-4.5c1.5,1,0.6,2.7,0.1,3.9
	c-0.6,1.5-1.6,2.7-2.1,3.3c0.3,0.3,0.9,0.5,1.5,0.5C139.3,72.6,140.8,69.5,141.7,68z M136.4,65.9c-0.7-0.1-2.2,3.3-1.7,5.3
	c1.2-1.3,1.3-2,1.6-2.8C136.7,67.3,137.1,66.1,136.4,65.9z M143,68c-0.2,0.4-0.5,0.9-1,1.7c-0.2,0.3-0.7-0.4-0.4-1
	c0.2-0.4,0.3-0.7,0.7-1.2c0.1-0.2,0.1-0.1,0.1-0.9c0-1.1,0.4-2.4,1-2.3c0.5,0,0.8,0.9,0.8,1.1c0,0.3-0.4,0.7-0.2,0.9
	c0.1,0.2,0.4,0.1,0.5,0c0.2-0.1,1-0.7,1.8-0.2c0.5,0.3,0.3,1.2,0.3,1.3c-0.1,0.8-0.5,0.8-0.5,2.3s0.1,2.8,1.6,2.8
	c1.7,0,3.3-2.9,4.1-4.4c0.3-0.6,0.8,0.2,0.1,1.6c-0.3,0.5-2,4-4.5,3.9c-2.7-0.1-2.8-2.9-2.8-3.5c-0.1-1.6,0.5-2.2,0.3-2.4
	c-0.4-0.3-0.4,0.2-0.9,0.2S143.2,67.7,143,68z"/>
<g>
	<line class="st1" x1="83.9" y1="69.8" x2="22.1" y2="69.8"/>
	<line class="st1" x1="160.5" y1="69.8" x2="154.5" y2="69.8"/>
</g>
</svg>
