<?xml version="1.0" encoding="utf-8"?>
<!-- Generator: Adobe Illustrator 23.0.1, SVG Export Plug-In . SVG Version: 6.00 Build 0)  -->
<svg version="1.1" id="Layer_1" xmlns="http://www.w3.org/2000/svg" xmlns:xlink="http://www.w3.org/1999/xlink" x="0px" y="0px"
	 viewBox="0 0 595.2 171" style="enable-background:new 0 0 595.2 171;" xml:space="preserve">
<style type="text/css">
	.st0{fill:#1D1D1B;}
	
		.st1{fill:none;stroke:#5B5B5B;stroke-width:4.5;stroke-linecap:round;stroke-linejoin:round;stroke-miterlimit:10;stroke-dasharray:1,8;}
</style>
<g id="Laag_2">
</g>
<g>
	<path class="st0" d="M55.9,90.1c0-3.1-0.4-5.2-1.2-6.5s-2.1-1.9-4-1.9c-0.6,0-1.2,0-1.8,0.1s-1.3,0.1-1.8,0.2v25.8h-9.5V75.6
		c0.8-0.2,1.7-0.4,2.8-0.7s2.2-0.4,3.4-0.6s2.4-0.3,3.7-0.4s2.5-0.2,3.8-0.2c2.4,0,4.4,0.3,5.9,0.9s2.7,1.3,3.7,2.2
		c1.4-1,2.9-1.7,4.7-2.3c1.8-0.6,3.4-0.8,4.9-0.8c2.7,0,4.9,0.4,6.6,1.1s3.1,1.8,4.1,3.1c1,1.4,1.7,3,2.1,4.8
		c0.4,1.9,0.6,3.9,0.6,6.2v18.9h-9.5V90.1c0-3.1-0.4-5.2-1.2-6.5c-0.8-1.3-2.1-1.9-4-1.9c-0.5,0-1.2,0.1-2.1,0.4s-1.7,0.6-2.3,1
		c0.3,1,0.5,2,0.6,3.1s0.1,2.2,0.1,3.5V108H56L55.9,90.1L55.9,90.1z"/>
	<path class="st0" d="M89.5,91.4c0-3,0.5-5.6,1.4-7.8c0.9-2.2,2.1-4.1,3.6-5.6s3.2-2.6,5.1-3.4s3.9-1.1,5.9-1.1
		c4.7,0,8.5,1.5,11.3,4.4s4.1,7.2,4.1,12.8c0,0.6,0,1.2-0.1,1.8c0,0.7-0.1,1.2-0.1,1.7H99.3c0.2,2,1.1,3.5,2.7,4.6s3.8,1.7,6.5,1.7
		c1.7,0,3.4-0.2,5.1-0.5s3-0.7,4.1-1.2l1.3,7.7c-0.5,0.3-1.2,0.5-2,0.8s-1.8,0.5-2.8,0.7s-2.2,0.3-3.3,0.5c-1.2,0.1-2.4,0.2-3.6,0.2
		c-3,0-5.6-0.4-7.9-1.3c-2.2-0.9-4.1-2.1-5.5-3.7c-1.5-1.5-2.5-3.4-3.2-5.5C89.9,96.2,89.5,93.9,89.5,91.4z M111.8,87.8
		c0-0.8-0.2-1.6-0.4-2.4c-0.2-0.8-0.6-1.4-1.1-2s-1.1-1.1-1.8-1.5c-0.7-0.4-1.7-0.6-2.8-0.6c-1.1,0-2,0.2-2.7,0.5s-1.4,0.8-1.9,1.4
		s-0.9,1.3-1.2,2.1c-0.3,0.8-0.5,1.6-0.6,2.4L111.8,87.8L111.8,87.8z"/>
	<path class="st0" d="M125.4,91.4c0-3,0.5-5.6,1.4-7.8c0.9-2.2,2.1-4.1,3.6-5.6s3.2-2.6,5.1-3.4c1.9-0.8,3.9-1.1,5.9-1.1
		c4.7,0,8.5,1.5,11.3,4.4s4.1,7.2,4.1,12.8c0,0.6,0,1.2-0.1,1.8c0,0.7-0.1,1.2-0.1,1.7h-21.5c0.2,2,1.1,3.5,2.7,4.6
		c1.6,1.1,3.8,1.7,6.5,1.7c1.7,0,3.4-0.2,5.1-0.5c1.7-0.3,3-0.7,4.1-1.2l1.3,7.7c-0.5,0.3-1.2,0.5-2,0.8s-1.8,0.5-2.8,0.7
		s-2.2,0.3-3.3,0.5c-1.2,0.1-2.4,0.2-3.6,0.2c-3,0-5.6-0.4-7.9-1.3c-2.2-0.9-4.1-2.1-5.5-3.7c-1.5-1.5-2.5-3.4-3.2-5.5
		C125.8,96.2,125.4,93.9,125.4,91.4z M147.7,87.8c0-0.8-0.2-1.6-0.4-2.4s-0.6-1.4-1.1-2s-1.1-1.1-1.8-1.5s-1.7-0.6-2.8-0.6
		s-2,0.2-2.7,0.5s-1.4,0.8-1.9,1.4s-0.9,1.3-1.2,2.1c-0.3,0.8-0.5,1.6-0.6,2.4L147.7,87.8L147.7,87.8z"/>
	<path class="st0" d="M183,82.8c-0.8-0.2-1.8-0.4-3-0.7c-1.1-0.2-2.4-0.3-3.7-0.3c-0.6,0-1.3,0.1-2.1,0.2s-1.5,0.2-1.9,0.3v25.6
		h-9.5V76.2c1.7-0.6,3.7-1.2,6-1.7s4.9-0.8,7.7-0.8c0.5,0,1.1,0,1.8,0.1s1.4,0.1,2.2,0.3c0.7,0.1,1.4,0.2,2.2,0.4
		c0.7,0.1,1.3,0.3,1.8,0.5L183,82.8z"/>
	<path class="st0" d="M220.5,107.9c-2.2-4.2-4.4-9.2-6.6-14.9c-2.2-5.7-4.4-11.9-6.4-18.6h10c0.4,1.7,0.9,3.4,1.5,5.4
		c0.6,1.9,1.2,3.9,1.8,5.9s1.2,3.9,1.9,5.8c0.6,1.9,1.2,3.6,1.8,5.1c0.6-1.5,1.1-3.2,1.8-5.1c0.6-1.9,1.3-3.8,1.9-5.8
		c0.6-2,1.2-3.9,1.8-5.9c0.6-1.9,1.1-3.7,1.5-5.4h9.8c-2,6.7-4.1,12.9-6.3,18.6s-4.4,10.6-6.6,14.9H220.5z"/>
	<path class="st0" d="M275.5,91.1c0,2.6-0.4,5-1.1,7.2c-0.8,2.2-1.9,4.1-3.3,5.6s-3.2,2.7-5.2,3.6c-2,0.8-4.3,1.3-6.8,1.3
		s-4.7-0.4-6.7-1.3c-2-0.8-3.7-2-5.2-3.6c-1.4-1.5-2.6-3.4-3.4-5.6c-0.8-2.2-1.2-4.6-1.2-7.2s0.4-5,1.2-7.2s2-4,3.4-5.5
		c1.5-1.5,3.2-2.7,5.2-3.6c2-0.8,4.2-1.3,6.6-1.3s4.6,0.4,6.6,1.3c2,0.8,3.7,2,5.2,3.6c1.4,1.5,2.6,3.4,3.4,5.5
		C275.1,86.1,275.5,88.5,275.5,91.1z M265.8,91.1c0-2.9-0.6-5.2-1.7-6.9c-1.2-1.7-2.8-2.5-5-2.5s-3.8,0.8-5,2.5s-1.8,4-1.8,6.9
		s0.6,5.2,1.8,7c1.2,1.7,2.9,2.6,5,2.6s3.8-0.9,5-2.6C265.2,96.3,265.8,94,265.8,91.1z"/>
	<path class="st0" d="M312.8,91.1c0,2.6-0.4,5-1.1,7.2c-0.8,2.2-1.9,4.1-3.3,5.6s-3.2,2.7-5.2,3.6c-2,0.8-4.3,1.3-6.8,1.3
		s-4.7-0.4-6.7-1.3c-2-0.8-3.7-2-5.2-3.6c-1.4-1.5-2.6-3.4-3.4-5.6s-1.2-4.6-1.2-7.2s0.4-5,1.2-7.2c0.8-2.2,2-4,3.4-5.5
		c1.5-1.5,3.2-2.7,5.2-3.6c2-0.8,4.2-1.3,6.6-1.3s4.6,0.4,6.6,1.3c2,0.8,3.7,2,5.2,3.6c1.4,1.5,2.6,3.4,3.4,5.5
		C312.4,86.1,312.8,88.5,312.8,91.1z M303.1,91.1c0-2.9-0.6-5.2-1.7-6.9c-1.2-1.7-2.8-2.5-5-2.5s-3.8,0.8-5,2.5s-1.8,4-1.8,6.9
		s0.6,5.2,1.8,7c1.2,1.7,2.9,2.6,5,2.6s3.8-0.9,5-2.6C302.5,96.3,303.1,94,303.1,91.1z"/>
	<path class="st0" d="M339,82.8c-0.8-0.2-1.8-0.4-3-0.7c-1.1-0.2-2.4-0.3-3.7-0.3c-0.6,0-1.3,0.1-2.1,0.2c-0.8,0.1-1.5,0.2-1.9,0.3
		v25.6h-9.5V76.2c1.7-0.6,3.7-1.2,6-1.7s4.9-0.8,7.7-0.8c0.5,0,1.1,0,1.8,0.1c0.7,0.1,1.4,0.1,2.2,0.3c0.7,0.1,1.4,0.2,2.2,0.4
		c0.7,0.1,1.3,0.3,1.8,0.5L339,82.8z"/>
	<path class="st0" d="M376.8,90.1c0-3.1-0.4-5.2-1.2-6.5c-0.8-1.3-2.1-1.9-4-1.9c-0.6,0-1.2,0-1.8,0.1c-0.6,0.1-1.3,0.1-1.8,0.2
		v25.8h-9.5V75.6c0.8-0.2,1.8-0.4,2.8-0.7c1.1-0.2,2.2-0.4,3.4-0.6c1.2-0.2,2.4-0.3,3.7-0.4c1.3-0.1,2.5-0.2,3.8-0.2
		c2.4,0,4.4,0.3,5.9,0.9s2.7,1.3,3.7,2.2c1.4-1,2.9-1.7,4.7-2.3c1.8-0.6,3.4-0.8,4.9-0.8c2.7,0,4.9,0.4,6.6,1.1s3.1,1.8,4.1,3.1
		s1.7,3,2.1,4.8c0.4,1.9,0.6,3.9,0.6,6.2v18.9h-9.5V90.1c0-3.1-0.4-5.2-1.2-6.5c-0.8-1.3-2.1-1.9-4-1.9c-0.5,0-1.2,0.1-2.1,0.4
		s-1.7,0.6-2.3,1c0.3,1,0.5,2,0.6,3.1s0.1,2.2,0.1,3.5V108h-9.5V90.1H376.8z"/>
	<path class="st0" d="M424,73.5c2.8,0,5.1,0.3,7,1c1.9,0.6,3.4,1.5,4.5,2.7s1.9,2.6,2.4,4.3c0.5,1.7,0.7,3.6,0.7,5.7v19.7
		c-1.4,0.3-3.2,0.6-5.7,1s-5.3,0.6-8.8,0.6c-2.2,0-4.1-0.2-5.9-0.6s-3.3-1-4.5-1.9c-1.3-0.9-2.2-2-2.9-3.4c-0.7-1.4-1-3.1-1-5.2
		c0-1.9,0.4-3.6,1.2-5c0.8-1.4,1.8-2.4,3.1-3.2c1.3-0.8,2.8-1.4,4.5-1.7c1.7-0.4,3.5-0.5,5.3-0.5c1.2,0,2.3,0.1,3.3,0.2
		s1.7,0.2,2.3,0.4v-0.9c0-1.6-0.5-2.9-1.5-3.9s-2.7-1.5-5.1-1.5c-1.6,0-3.2,0.1-4.8,0.3c-1.6,0.2-2.9,0.6-4.1,1l-1.2-7.6
		c0.6-0.2,1.2-0.4,2.1-0.5s1.7-0.4,2.7-0.5s2-0.3,3.1-0.4C421.8,73.6,422.9,73.5,424,73.5z M424.7,101.3c0.9,0,1.8,0,2.7-0.1
		c0.8,0,1.5-0.1,2-0.2v-7.2c-0.4-0.1-1-0.2-1.7-0.3s-1.5-0.1-2.1-0.1c-0.9,0-1.7,0.1-2.5,0.2s-1.5,0.3-2.1,0.6
		c-0.6,0.3-1.1,0.7-1.4,1.2s-0.5,1.1-0.5,1.9c0,1.5,0.5,2.5,1.5,3.1S423,101.3,424.7,101.3z"/>
	<path class="st0" d="M464.2,90.1c0-3.1-0.4-5.2-1.2-6.5c-0.8-1.3-2.1-1.9-4-1.9c-0.6,0-1.2,0-1.8,0.1c-0.6,0.1-1.3,0.1-1.8,0.2
		v25.8h-9.5V75.6c0.8-0.2,1.8-0.4,2.8-0.7s2.2-0.4,3.4-0.6c1.2-0.2,2.4-0.3,3.7-0.4c1.3-0.1,2.5-0.2,3.8-0.2c2.4,0,4.4,0.3,5.9,0.9
		s2.7,1.3,3.7,2.2c1.4-1,2.9-1.7,4.7-2.3c1.8-0.6,3.4-0.8,4.9-0.8c2.7,0,4.9,0.4,6.6,1.1s3.1,1.8,4.1,3.1s1.7,3,2.1,4.8
		c0.4,1.9,0.6,3.9,0.6,6.2v18.9h-9.5V90.1c0-3.1-0.4-5.2-1.2-6.5c-0.8-1.3-2.1-1.9-4-1.9c-0.5,0-1.2,0.1-2.1,0.4s-1.7,0.6-2.3,1
		c0.3,1,0.5,2,0.6,3.1s0.1,2.2,0.1,3.5V108h-9.5V90.1H464.2z"/>
	<path class="st0" d="M511.4,73.5c2.8,0,5.1,0.3,7,1c1.9,0.6,3.4,1.5,4.5,2.7s1.9,2.6,2.4,4.3c0.5,1.7,0.7,3.6,0.7,5.7v19.7
		c-1.4,0.3-3.2,0.6-5.7,1s-5.3,0.6-8.8,0.6c-2.2,0-4.1-0.2-5.9-0.6s-3.3-1-4.5-1.9c-1.3-0.9-2.2-2-2.9-3.4c-0.7-1.4-1-3.1-1-5.2
		c0-1.9,0.4-3.6,1.2-5c0.8-1.4,1.8-2.4,3.1-3.2c1.3-0.8,2.8-1.4,4.5-1.7c1.7-0.4,3.5-0.5,5.3-0.5c1.2,0,2.3,0.1,3.3,0.2
		s1.7,0.2,2.3,0.4v-0.9c0-1.6-0.5-2.9-1.5-3.9s-2.7-1.5-5.1-1.5c-1.6,0-3.2,0.1-4.8,0.3c-1.6,0.2-2.9,0.6-4.1,1l-1.2-7.6
		c0.6-0.2,1.2-0.4,2.1-0.5s1.7-0.4,2.7-0.5s2-0.3,3.1-0.4C509.3,73.6,510.3,73.5,511.4,73.5z M512.2,101.3c0.9,0,1.8,0,2.7-0.1
		c0.8,0,1.5-0.1,2-0.2v-7.2c-0.4-0.1-1-0.2-1.7-0.3s-1.5-0.1-2.1-0.1c-0.9,0-1.7,0.1-2.5,0.2s-1.5,0.3-2.1,0.6
		c-0.6,0.3-1.1,0.7-1.4,1.2s-0.5,1.1-0.5,1.9c0,1.5,0.5,2.5,1.5,3.1S510.5,101.3,512.2,101.3z"/>
	<path class="st0" d="M540.1,59.1c0.1,0.6,0.1,1.2,0.2,1.8c0,0.6,0.1,1.1,0.1,1.4c0,2.8-0.5,5.5-1.5,8.1s-2.3,4.7-3.8,6.5l-6.7-1.5
		c0.8-1.8,1.5-3.9,1.9-6.2c0.5-2.3,0.7-4.5,0.7-6.6c0-0.1,0-0.3,0-0.5c0-0.3,0-0.6,0-1s0-0.7-0.1-1.1c0-0.4-0.1-0.7-0.1-1
		L540.1,59.1L540.1,59.1z"/>
	<path class="st0" d="M550.8,101.1c1.7,0,3-0.2,3.7-0.5s1.1-1,1.1-2c0-0.8-0.5-1.4-1.4-2s-2.4-1.2-4.3-1.9c-1.5-0.6-2.8-1.1-4-1.7
		s-2.2-1.3-3.1-2.1c-0.8-0.8-1.5-1.8-2-3c-0.5-1.1-0.7-2.5-0.7-4.1c0-3.1,1.2-5.6,3.5-7.4s5.5-2.7,9.6-2.7c2,0,4,0.2,5.9,0.5
		s3.3,0.8,4.5,1.2l-1.7,7.4c-1.1-0.4-2.3-0.7-3.6-1s-2.7-0.4-4.4-0.4c-3,0-4.5,0.8-4.5,2.5c0,0.4,0.1,0.7,0.2,1
		c0.1,0.3,0.4,0.6,0.8,0.9c0.4,0.3,0.9,0.6,1.6,0.9c0.7,0.3,1.5,0.7,2.5,1.1c2.1,0.8,3.8,1.5,5.2,2.3c1.4,0.7,2.4,1.6,3.2,2.4
		c0.8,0.9,1.3,1.8,1.7,2.9c0.3,1.1,0.5,2.3,0.5,3.7c0,3.3-1.2,5.8-3.7,7.5s-6,2.5-10.5,2.5c-3,0-5.4-0.3-7.4-0.8s-3.3-0.9-4.1-1.3
		l1.6-7.7c1.6,0.6,3.3,1.1,5,1.5C547.5,100.9,549.2,101.1,550.8,101.1z"/>
</g>
<path class="st1" d="M111.7,57.7c0,0-2.3-33.9-28.7-33.9S51.3,56.7,51.3,56.7"/>
<path class="st1" d="M140.5,155c0,0,23.7-22.6,33.4-34.5s22.6-31.1,26-45.1c4.8-19.9-5.8-58.7-41.9-55.5
	c-26.3,2.4-39.7,31.2-39.7,31.2"/>
</svg>
